<?xml version="1.0" encoding="utf-8"?>
<!-- Generator: Adobe Illustrator 22.1.0, SVG Export Plug-In . SVG Version: 6.00 Build 0)  -->
<svg version="1.1" id="Layer_1" xmlns="http://www.w3.org/2000/svg" xmlns:xlink="http://www.w3.org/1999/xlink" x="0px" y="0px"
	 viewBox="0 0 1366 768" style="enable-background:new 0 0 1366 768;" xml:space="preserve">
<style type="text/css">
	.st0{fill:#521418;}
	.st1{fill:#F2A01F;}
</style>
<g>
	<rect x="648.5" y="279" class="st0" width="35.1" height="28.2"/>
	<g>
		<g>
			<path class="st1" d="M655.4,287c7,0,14.1,0,21.1,0c1.3,0,1.3-2,0-2c-7,0-14.1,0-21.1,0C654.2,285,654.2,287,655.4,287L655.4,287z
				"/>
		</g>
	</g>
	<g>
		<g>
			<path class="st1" d="M655.4,294.1c7,0,14.1,0,21.1,0c1.3,0,1.3-2,0-2c-7,0-14.1,0-21.1,0C654.2,292.1,654.2,294.1,655.4,294.1
				L655.4,294.1z"/>
		</g>
	</g>
	<g>
		<g>
			<path class="st1" d="M655.4,301.1c7,0,14.1,0,21.1,0c1.3,0,1.3-2,0-2c-7,0-14.1,0-21.1,0C654.1,299.1,654.1,301.1,655.4,301.1
				L655.4,301.1z"/>
		</g>
	</g>
</g>
</svg>
