<?xml version="1.0" encoding="utf-8"?>
<!-- Generator: Adobe Illustrator 22.1.0, SVG Export Plug-In . SVG Version: 6.00 Build 0)  -->
<svg version="1.1" id="Layer_1" xmlns="http://www.w3.org/2000/svg" xmlns:xlink="http://www.w3.org/1999/xlink" x="0px" y="0px"
	 viewBox="0 0 50 40" style="enable-background:new 0 0 50 40;" xml:space="preserve">
<style type="text/css">
	.st0{fill:#521418;}
	.st1{fill:#F2A01F;}
</style>
<g>
	<rect class="st0" width="50" height="40"/>
	<g>
		<g>
			<path class="st1" d="M9.9,11.5c10,0,20.1,0,30.1,0c1.9,0,1.9-3,0-3c-10,0-20.1,0-30.1,0C8,8.5,8,11.5,9.9,11.5L9.9,11.5z"/>
		</g>
	</g>
	<g>
		<g>
			<path class="st1" d="M9.9,21.5c10,0,20.1,0,30.1,0c1.9,0,1.9-3,0-3c-10,0-20.1,0-30.1,0C8,18.5,8,21.5,9.9,21.5L9.9,21.5z"/>
		</g>
	</g>
	<g>
		<g>
			<path class="st1" d="M9.9,31.5c10,0,20.1,0,30.1,0c1.9,0,1.9-3,0-3c-10,0-20.1,0-30.1,0C8,28.5,8,31.5,9.9,31.5L9.9,31.5z"/>
		</g>
	</g>
</g>
</svg>
