<?xml version="1.0" encoding="utf-8"?>
<!-- Generator: Adobe Illustrator 22.1.0, SVG Export Plug-In . SVG Version: 6.00 Build 0)  -->
<svg version="1.1" id="Layer_1" xmlns="http://www.w3.org/2000/svg" xmlns:xlink="http://www.w3.org/1999/xlink" x="0px" y="0px"
	 viewBox="0 0 50 40" style="enable-background:new 0 0 50 40;" xml:space="preserve">
<style type="text/css">
	.st0{fill:#521418;}
	.st1{fill:#F2A01F;}
</style>
<g>
	<rect class="st0" width="50" height="40"/>
	<g>
		<g>
			<path class="st1" d="M9.9,12C20,12,30,12,40,12c2.6,0,2.6-4,0-4C30,8,20,8,9.9,8C7.4,8,7.3,12,9.9,12L9.9,12z"/>
		</g>
	</g>
	<g>
		<g>
			<path class="st1" d="M9.9,22c10,0,20.1,0,30.1,0c2.6,0,2.6-4,0-4c-10,0-20.1,0-30.1,0C7.3,18,7.3,22,9.9,22L9.9,22z"/>
		</g>
	</g>
	<g>
		<g>
			<path class="st1" d="M9.9,32c10,0,20.1,0,30.1,0c2.6,0,2.6-4,0-4c-10,0-20.1,0-30.1,0C7.3,28,7.3,32,9.9,32L9.9,32z"/>
		</g>
	</g>
</g>
</svg>
