<?xml version="1.0" encoding="utf-8"?>
<!-- Generator: Adobe Illustrator 22.1.0, SVG Export Plug-In . SVG Version: 6.00 Build 0)  -->
<svg version="1.1" id="Layer_1" xmlns="http://www.w3.org/2000/svg" xmlns:xlink="http://www.w3.org/1999/xlink" x="0px" y="0px"
	 viewBox="0 0 100 100" style="enable-background:new 0 0 100 100;" xml:space="preserve">
<style type="text/css">
	.st0{fill:#521418;}
	.st1{fill:#F2A01F;}
</style>
<g>
	<rect x="15.5" y="17" class="st0" width="35.1" height="28.2"/>
	<g>
		<g>
			<path class="st1" d="M22.4,25c7,0,14.1,0,21.1,0c1.3,0,1.3-2,0-2c-7,0-14.1,0-21.1,0C21.2,23,21.2,25,22.4,25L22.4,25z"/>
		</g>
	</g>
	<g>
		<g>
			<path class="st1" d="M22.4,32.1c7,0,14.1,0,21.1,0c1.3,0,1.3-2,0-2c-7,0-14.1,0-21.1,0C21.2,30.1,21.2,32.1,22.4,32.1L22.4,32.1z
				"/>
		</g>
	</g>
	<g>
		<g>
			<path class="st1" d="M22.4,39.1c7,0,14.1,0,21.1,0c1.3,0,1.3-2,0-2c-7,0-14.1,0-21.1,0C21.1,37.1,21.1,39.1,22.4,39.1L22.4,39.1z
				"/>
		</g>
	</g>
</g>
</svg>
